PathFileType  4	(X/Y/Z) C:\Users\antoi\Documents\MyRepositories\mobilecap\ResultsAnalysis
DataRate	CameraRate	NumFrames	NumMarkers	Units	OrigDataRate	OrigDataStartFrame	OrigNumFrames
100.0	100.0	5	51	mm	100.0	1	231
Frame#	Time	r_knee			r_shank_antsup			r_ankle			r_calc			r_5meta			r_toe			L_knee			L_shank_antsup			L_ankle			L_calc			L_5meta			L_toe			r_sh2			r_sh3			r_sh4			L_sh2			L_sh3			r_thigh1			r_thigh2			r_thigh3			r_thigh4			r_thigh5			L_thigh1			L_thigh2			L_thigh3			L_thigh4			r.ASIS			r.PSIS			L.ASIS			L.PSIS			C7			R_Shoulder			L_Shoulder			R_Sternum			L_Sternum			R_humerus			R_elbow_med			R_elbow_lat			R_forearm			R_wrist_radius			R_wrist_ulna			L_humerus			L_elbow_med			L_elbow_lat			L_forearm			L_wrist_radius			L_wrist_ulna			R_HJC			L_HJC			R_HJC_reg			L_HJC_reg			
		X1	Y1	Z1	X2	Y2	Z2	X3	Y3	Z3	X4	Y4	Z4	X5	Y5	Z5	X6	Y6	Z6	X7	Y7	Z7	X8	Y8	Z8	X9	Y9	Z9	X10	Y10	Z10	X11	Y11	Z11	X12	Y12	Z12	X13	Y13	Z13	X14	Y14	Z14	X15	Y15	Z15	X16	Y16	Z16	X17	Y17	Z17	X18	Y18	Z18	X19	Y19	Z19	X20	Y20	Z20	X21	Y21	Z21	X22	Y22	Z22	X23	Y23	Z23	X24	Y24	Z24	X25	Y25	Z25	X26	Y26	Z26	X27	Y27	Z27	X28	Y28	Z28	X29	Y29	Z29	X30	Y30	Z30	X31	Y31	Z31	X32	Y32	Z32	X33	Y33	Z33	X34	Y34	Z34	X35	Y35	Z35	X36	Y36	Z36	X37	Y37	Z37	X38	Y38	Z38	X39	Y39	Z39	X40	Y40	Z40	X41	Y41	Z41	X42	Y42	Z42	X43	Y43	Z43	X44	Y44	Z44	X45	Y45	Z45	X46	Y46	Z46	X47	Y47	Z47	X48	Y48	Z48	X49	Y49	Z49	X50	Y50	Z50	X51	Y51	Z51	

1	0.00000000	-1149.50165	843.93387	-434.55736	-1124.31637	742.06058	-447.59293	-1260.60827	426.81037	-479.42456	-1344.62444	381.76698	-527.21097	-1149.70592	357.76302	-435.90260	-1091.73596	386.93389	-498.18671	-1173.10640	850.70340	-744.37851	-1173.68138	757.74513	-765.20219	-1251.49744	428.46973	-710.40283	-1331.83692	380.67898	-658.29411	-1136.62109	359.92651	-737.16870	-1081.56850	390.21462	-671.17268	-1159.90507	636.18842	-427.14446	-1181.88010	769.36480	-402.01853	-1235.16615	665.47382	-401.38169	-1263.13070	773.98965	-764.84733	-1270.78294	652.07765	-757.92617	-1087.75533	1168.99891	-403.12787	-1079.87438	1060.44503	-418.38648	-1128.88173	1027.81806	-387.43556	-1199.03974	1153.31546	-389.76968	-1181.79827	1041.10228	-399.25766	-1096.79506	1142.08287	-755.25992	-1092.18542	1001.82842	-742.26687	-1205.88747	1134.21727	-778.83989	-1204.82386	997.20356	-766.87388	-1087.18127	1386.45046	-450.20161	-1272.06291	1397.03755	-510.89438	-1098.16000	1389.15584	-698.64608	-1280.48893	1402.56165	-620.23073	-1169.24990	1942.61466	-570.14368	-1123.15117	1878.75720	-406.09086	-1137.27423	1884.64473	-738.68194	-1059.21180	1841.80823	-542.41457	-1061.07127	1837.93844	-600.64008	-1135.61360	1724.05041	-335.58362	-1248.35265	1529.88305	-363.50072	-1223.62221	1553.45173	-282.68027	-1139.35489	1400.34125	-260.12555	-1080.40567	1322.86178	-268.89419	-1121.83051	1317.76553	-247.45765	-1170.78970	1761.76342	-817.99248	-1232.31221	1526.74283	-763.83247	-1217.23148	1540.28546	-842.24456	-1167.31572	1482.24547	-863.73896	-1092.88695	1318.34367	-865.82750	-1130.69300	1307.41706	-881.04611	-1166.52529	1268.98985	-468.61400	-1180.79028	1278.80499	-674.84914	-1143.27764	1300.01417	-485.20904	-1155.87399	1308.27232	-648.65960	
2	0.01000000	-1148.28189	843.58058	-434.34117	-1123.28231	741.76361	-447.56416	-1260.56199	426.76302	-479.42107	-1345.66121	381.56206	-526.83061	-1149.71838	357.71407	-435.98831	-1091.64876	387.00268	-498.18659	-1173.10708	850.72426	-744.33354	-1173.67845	757.72899	-765.26357	-1251.60434	428.65307	-711.16793	-1331.77077	380.13661	-659.37571	-1136.66981	359.92431	-737.17757	-1081.63782	390.31770	-671.22581	-1159.38560	635.76287	-427.62611	-1180.79970	767.60753	-404.87374	-1234.37824	664.85629	-401.64941	-1263.08599	773.93825	-764.75676	-1270.73743	652.15769	-757.86927	-1087.48637	1168.71730	-403.23520	-1079.14492	1059.94492	-418.80973	-1128.31110	1027.31424	-387.33337	-1198.27177	1152.52751	-390.27680	-1181.13801	1040.68079	-399.00181	-1096.94894	1142.11863	-755.13101	-1092.28042	1001.84825	-742.20257	-1206.10566	1134.08185	-778.54491	-1204.89720	997.14974	-766.78003	-1087.13868	1385.87306	-450.10321	-1271.99118	1397.14320	-510.67512	-1098.30598	1388.81670	-698.43245	-1280.49746	1402.80685	-619.79287	-1164.30526	1942.46866	-570.12146	-1118.81853	1878.39297	-405.97887	-1133.00161	1884.29446	-738.47836	-1055.25215	1840.42356	-542.44197	-1057.26415	1836.72789	-600.93611	-1133.82277	1724.24798	-334.90752	-1249.68287	1531.90052	-362.20358	-1225.19247	1555.53961	-281.33342	-1140.74298	1402.56296	-258.45145	-1081.46686	1325.40802	-267.21235	-1122.86554	1320.15278	-245.87531	-1168.05097	1761.77664	-817.74384	-1232.94002	1527.23838	-764.46131	-1217.32250	1541.05101	-842.58465	-1167.55863	1482.80892	-864.30267	-1093.19141	1319.06644	-866.44805	-1130.91358	1308.00912	-881.50446	-1166.88522	1268.70079	-468.49240	-1181.29479	1278.74015	-674.70663	-1143.52057	1299.65757	-485.13097	-1156.25522	1308.13658	-648.49063	
3	0.02000000	-1147.04779	843.14110	-434.17801	-1122.29098	741.37619	-447.59888	-1260.56449	426.69698	-479.43352	-1346.04753	381.57256	-526.80207	-1149.72000	357.73373	-436.02322	-1091.68316	387.06343	-498.23328	-1173.09121	850.72129	-744.28986	-1173.64519	757.72393	-765.20091	-1251.71943	428.73407	-711.50745	-1331.73940	379.91929	-659.76269	-1136.73343	359.96186	-737.22832	-1081.68961	390.46642	-671.44651	-1158.63875	635.41267	-427.91750	-1179.73301	767.13177	-405.48708	-1233.49074	664.84390	-401.45914	-1263.08185	773.94069	-764.63461	-1270.76008	652.16432	-757.84829	-1087.22342	1168.51190	-403.29244	-1078.51510	1059.66180	-418.81229	-1127.63573	1026.92487	-387.26946	-1197.81798	1151.81716	-390.20721	-1180.44879	1040.16477	-398.84025	-1097.08504	1142.15227	-755.01323	-1092.37167	1001.86019	-742.13474	-1206.28149	1134.01935	-778.39958	-1204.98419	997.11700	-766.72339	-1087.09835	1385.32366	-450.13243	-1271.88275	1397.23482	-510.50380	-1098.43740	1388.52706	-698.35986	-1280.48040	1403.15609	-619.42955	-1159.17634	1942.28648	-569.95179	-1114.19668	1878.01273	-405.89037	-1128.58387	1883.84859	-738.28665	-1051.16453	1839.07985	-542.31681	-1053.26694	1835.61464	-601.19072	-1131.98395	1724.43870	-334.07694	-1251.52229	1533.95664	-360.66987	-1226.84829	1557.82932	-279.92410	-1142.33020	1404.85247	-256.95148	-1082.72685	1327.96646	-265.64893	-1124.06943	1322.64093	-244.16052	-1165.16689	1761.93800	-817.77797	-1232.84818	1528.12532	-764.92434	-1217.44791	1541.92156	-843.07365	-1167.76852	1483.40428	-864.81717	-1093.54043	1319.71067	-866.99347	-1131.25670	1308.65199	-881.88518	-1167.21899	1268.42790	-468.50307	-1181.80475	1278.74511	-674.69120	-1143.69876	1299.20780	-485.27804	-1156.58547	1308.08305	-648.54423	
4	0.03000000	-1145.81731	842.77353	-433.91800	-1121.28680	740.88224	-447.71578	-1260.57390	426.66330	-479.41524	-1346.05294	381.65578	-526.93971	-1149.72261	357.77854	-436.01811	-1091.76160	387.13982	-498.30071	-1173.06434	850.72163	-744.23620	-1173.59643	757.73400	-765.09120	-1251.83071	428.72563	-711.53816	-1331.79640	379.89229	-659.67014	-1136.80493	360.00587	-737.31206	-1081.74975	390.58210	-671.64291	-1157.68564	635.05224	-427.90705	-1178.52086	767.30048	-404.76756	-1232.60158	665.08148	-401.15658	-1263.06607	773.99310	-764.55145	-1270.80016	652.14571	-757.85119	-1086.83244	1168.32797	-403.45196	-1077.86696	1059.43519	-418.63896	-1126.83184	1026.56698	-387.26182	-1197.64800	1151.25716	-389.44870	-1179.75221	1039.61976	-398.73456	-1097.24783	1142.16874	-754.91577	-1092.47607	1001.86042	-742.06280	-1206.45034	1134.01064	-778.35210	-1205.12685	997.07020	-766.58416	-1086.98137	1384.79269	-450.07841	-1271.75947	1397.38596	-510.31088	-1098.57173	1388.25062	-698.30954	-1280.44856	1403.55777	-619.12713	-1153.81550	1942.01663	-569.69967	-1109.28015	1877.70547	-405.55289	-1123.96806	1883.31735	-738.09251	-1046.91032	1837.71620	-542.14436	-1049.06635	1834.47159	-601.25332	-1130.05596	1724.55955	-333.22794	-1253.11195	1536.34345	-359.30939	-1228.52656	1560.26314	-278.55021	-1144.12364	1407.25510	-255.48339	-1084.24773	1330.51303	-264.07341	-1125.62868	1325.11320	-242.59016	-1162.13615	1762.11954	-817.85266	-1232.09531	1529.31061	-765.08549	-1217.55999	1542.82318	-843.52427	-1167.99635	1484.11333	-865.30365	-1093.97431	1320.25603	-867.44358	-1131.77220	1309.30180	-882.12958	-1167.55244	1268.19596	-468.49954	-1182.31198	1278.78026	-674.66188	-1143.86813	1298.76247	-485.35060	-1156.90379	1308.02115	-648.59641	
5	0.04000000	-1144.61667	842.51398	-433.66772	-1120.24751	740.36568	-447.85798	-1260.57199	426.69445	-479.37814	-1345.99956	381.63693	-526.96786	-1149.75514	357.77783	-436.03949	-1091.77623	387.23156	-498.34529	-1173.04060	850.74707	-744.18407	-1173.54382	757.74613	-765.03795	-1251.92396	428.69825	-711.56634	-1331.93464	379.83787	-659.62075	-1136.86885	360.00830	-737.36842	-1081.84398	390.64297	-671.67061	-1157.00738	634.69682	-427.74178	-1177.24551	767.09711	-404.51560	-1231.73986	665.00436	-401.27563	-1263.00040	774.05132	-764.53546	-1270.79362	652.17630	-757.84466	-1086.29710	1168.05447	-403.71326	-1077.17187	1059.08909	-418.65013	-1125.97251	1026.20172	-387.17068	-1197.33048	1150.73031	-389.02652	-1179.07586	1039.13274	-398.63106	-1097.54137	1142.16348	-754.89964	-1092.60662	1001.85248	-741.98523	-1206.64807	1134.00136	-778.29751	-1205.33034	996.97258	-766.21433	-1086.73142	1384.20937	-449.83559	-1271.58973	1397.70444	-509.86067	-1098.70454	1387.91755	-698.11018	-1280.40294	1403.89299	-618.78873	-1148.25707	1941.64557	-569.51783	-1104.19999	1877.35326	-405.07287	-1119.15455	1882.75909	-737.96633	-1042.48666	1836.25592	-542.04897	-1044.81842	1832.92625	-600.74099	-1127.95706	1724.60721	-332.48304	-1254.16328	1539.08968	-358.31834	-1230.14082	1562.76200	-277.31642	-1146.07174	1409.72775	-254.01597	-1086.05552	1333.01020	-262.52488	-1127.56829	1327.49159	-241.33524	-1158.98964	1762.16854	-817.67967	-1231.92434	1530.27265	-765.29217	-1217.56108	1543.69877	-843.77908	-1168.26882	1484.85669	-865.68441	-1094.55666	1320.77936	-867.76684	-1132.39977	1309.91170	-882.35988	-1167.88276	1267.99658	-468.28964	-1182.85155	1278.77187	-674.42700	-1144.12836	1298.56502	-485.01448	-1157.33893	1307.84149	-648.28850	
